<svg width="236" height="199" viewBox="0 0 236 199" fill="none" xmlns="http://www.w3.org/2000/svg">
<path d="M127.472 33.434C128.106 31.5653 128.615 29.985 129.63 28.273C133.107 22.4045 140.71 20.2603 147.011 22.4162C150.474 23.5928 153.321 26.107 154.916 29.3973C156.172 31.9892 156.313 34.113 156.57 36.9336C160 37.766 163.38 38.5575 166.763 39.5867C170.981 34.1033 177.485 36.348 177.934 42.1341C178.065 43.6495 177.569 45.1519 176.571 46.2977C175.154 47.9383 173.493 48.3896 171.449 48.6893C166.405 58.8737 163.497 72.0461 155.613 80.0109C154.919 81.3247 154.551 81.7198 153.573 82.8492C151.995 85.3202 149.345 88.5047 147.429 90.8301C146.729 91.8691 143.299 97.166 142.633 97.6877C141.869 99.0923 140.452 102.238 139.26 102.813C138.875 101.97 138.948 101.415 138.935 100.489C138.359 96.2278 136.158 76.0466 135.197 73.7694C134.105 72.5128 133.9 72.4077 132.39 71.6915C130.444 71.6486 130.092 71.655 128.26 72.2674C127.707 73.238 126.957 73.9047 126.176 74.7069C121.524 80.7914 117.581 86.7114 113.079 92.7664C112.262 93.7293 111.736 94.2791 111.163 95.4118C109.746 97.4576 107.858 100.034 106.596 102.117C107.074 104.286 107.228 104.925 107.045 107.196C105.992 111.188 104.861 114.254 101.432 116.916C98.2963 119.361 94.3093 120.444 90.3668 119.921C80.9018 118.668 76.8508 110.96 78.1411 102.056C75.9601 98.7688 61.3264 78.3247 59.9001 77.6849C60.4739 80.0946 60.9998 86.4409 61.383 89.3247C62.5939 97.9776 63.7545 106.637 64.8642 115.304C69.9938 116.363 73.9634 119.256 73.3873 125.033C73.1361 127.538 71.9071 129.843 69.9667 131.448C65.1011 135.423 60.1848 132.975 56.8242 128.555L41.5978 134.082C41.6072 135.269 41.6216 136.742 41.433 137.904C40.7953 141.797 38.5855 145.258 35.3213 147.476C31.9667 149.799 27.8139 150.664 23.8097 149.876C11.026 147.368 7.89441 130.943 19.126 123.602C16.0688 115.344 13.2032 107.017 10.5322 98.6265C7.61405 98.7136 5.48069 98.2914 3.20999 96.2868C1.28396 94.5795 0.130002 92.1667 0.00941603 89.5963C-0.101456 87.15 0.770453 84.7611 2.43152 82.9614C4.82984 80.3966 6.99403 80.184 10.207 80.109C11.4185 76.2816 12.5179 71.7789 13.6283 67.8557C13.8765 66.6855 14.7289 64.4288 15.147 63.2171L12.7875 60.7209C12.3993 57.7038 12.3102 54.6592 15.0843 52.808C18.7719 50.3467 21.7762 52.6992 23.7759 55.654C28.8928 55.3071 35.1699 54.4617 40.3448 53.9119C40.5732 52.4789 40.8301 51.0743 41.2753 49.6891C42.3924 46.2809 44.7987 43.4449 47.9805 41.7876C51.4561 40.0177 55.4944 39.7069 59.1997 40.9244C63.2993 41.9124 65.028 43.5816 67.5238 46.969C71.5105 44.8174 75.0762 42.9263 79.1784 41.0024C78.0523 37.0618 79.8035 33.59 79.6882 29.9883C79.2957 29.0773 78.9791 28.9865 78.0925 28.4953C78.9718 28.1826 79.1989 27.8354 79.8393 27.1711C80.1679 27.8277 80.192 27.7955 80.7926 28.2556C81.7878 28.2188 83.2837 26.7686 84.2832 26.0394C83.8223 27.2528 83.6324 27.4831 82.5914 28.2589L82.794 28.6832C83.4934 28.6048 83.7326 28.3293 84.2913 27.9003L84.7619 28.1394C83.9506 29.1867 83.4777 29.467 83.5795 30.5783L84.7643 31.8915C86.1594 31.7435 86.3644 31.7502 87.7337 32.0505C89.17 33.5713 87.7109 35.8042 90.9607 36.9152C91.4883 37.0953 93.3433 37.0501 94.0768 37.1398C97.6489 34.0337 94.3753 32.2152 99.8465 31.2255L101.788 29.2108C101.541 26.9936 95.7704 26.0086 94.787 24.5929C96.2688 20.4856 102.215 27.7952 104.536 26.545C104.85 27.0422 105.18 27.6827 105.652 27.9881L105.219 28.6584C105.724 30.4684 110.299 43.7691 110.252 44.6423C109.639 45.7027 109.356 46.0492 108.039 46.2371C107.487 48.4539 107.154 53.2446 105.799 54.3318C102.776 56.1626 100.72 53.9347 99.0256 55.5258C97.8341 60.2863 101.429 71.0195 102.855 76.1219C108.306 67.9712 114.57 59.9331 120.164 51.8393C122.78 48.0501 125.59 44.7672 127.985 40.7242C127.61 39.1394 127.573 38.4986 127.496 36.8579C124.605 36.7585 111.709 36.8429 110.279 35.8632C109.703 34.712 109.72 35.1493 110.011 34.1532C112.195 32.2634 123.898 33.28 127.472 33.434Z" fill="#0D3C7E"/>
<path d="M127.472 33.434C128.106 31.5653 128.615 29.985 129.63 28.273C133.107 22.4045 140.71 20.2603 147.011 22.4162C150.474 23.5928 153.321 26.107 154.916 29.3973C156.172 31.9892 156.313 34.113 156.57 36.9336C160 37.766 163.38 38.5575 166.763 39.5867C170.981 34.1033 177.485 36.348 177.934 42.1341C178.065 43.6495 177.569 45.1519 176.571 46.2977C175.154 47.9383 173.493 48.3896 171.449 48.6893C166.405 58.8737 163.497 72.0461 155.613 80.0109C154.919 81.3247 154.551 81.7198 153.573 82.8492C151.995 85.3202 149.345 88.5047 147.429 90.8301C146.729 91.8691 143.299 97.166 142.633 97.6877C141.869 99.0923 140.452 102.238 139.26 102.813C138.875 101.97 138.948 101.415 138.935 100.489C138.359 96.2278 136.158 76.0466 135.197 73.7694C134.105 72.5128 133.9 72.4077 132.39 71.6915C130.444 71.6486 130.092 71.655 128.26 72.2674C127.707 73.238 126.957 73.9047 126.176 74.7069L125.992 73.6663C129.231 70.8578 132.54 62.4145 134.075 61.2657C133.2 61.4291 133.006 61.6551 132.457 61.2168C131.274 60.2719 130.062 58.1083 129.291 56.7851C124.297 64.323 118.395 71.9717 113.173 79.3727C110.999 82.4558 103.126 94.3987 100.565 95.8786C99.9919 96.6691 97.9299 99.6236 97.3812 100.171L96.8125 98.8067C95.0945 99.6685 92.9832 98.1537 88.7459 99.4519C84.3328 94.1224 78.0141 83.8145 73.9621 79.4909L72.7834 80.2443C71.2288 78.4446 69.0807 75.097 67.632 73.0509C65.4658 70.0391 63.2286 67.0796 60.9221 64.174C59.9627 62.3586 59.6894 61.2011 57.6033 60.8592C54.9196 60.3553 53.9559 54.1403 60.5235 56.0294C61.0031 56.3997 60.7556 56.3585 61.242 56.3525C61.596 53.4723 61.0999 52.8194 59.9239 50.1642C60.0381 50.0936 60.2796 50.1086 60.4454 50.0996L61.3592 51.8876L61.8198 51.913L62.1363 51.3498C60.429 47.9236 61.1013 46.4262 61.0514 42.5282C60.5851 41.7062 60.0016 41.444 59.1997 40.9244C63.2993 41.9124 65.028 43.5816 67.5238 46.969C71.5105 44.8174 75.0762 42.9263 79.1784 41.0024C78.0523 37.0618 79.8035 33.59 79.6882 29.9883C79.2957 29.0773 78.9791 28.9865 78.0925 28.4953C78.9718 28.1826 79.1989 27.8354 79.8393 27.1711C80.1679 27.8277 80.192 27.7955 80.7926 28.2556C81.7878 28.2188 83.2837 26.7686 84.2832 26.0394C83.8223 27.2528 83.6324 27.4831 82.5914 28.2589L82.794 28.6832C83.4934 28.6048 83.7326 28.3293 84.2913 27.9003L84.7619 28.1394C83.9506 29.1867 83.4777 29.467 83.5795 30.5783L84.7643 31.8915C86.1594 31.7435 86.3644 31.7502 87.7337 32.0505C89.17 33.5713 87.7109 35.8042 90.9607 36.9152C91.4883 37.0953 93.3433 37.0501 94.0768 37.1398C97.6489 34.0337 94.3753 32.2152 99.8465 31.2255L101.788 29.2108C101.541 26.9936 95.7704 26.0086 94.787 24.5929C96.2688 20.4856 102.215 27.7952 104.536 26.545C104.85 27.0422 105.18 27.6827 105.652 27.9881L105.219 28.6584C105.724 30.4684 110.299 43.7691 110.252 44.6423C109.639 45.7027 109.356 46.0492 108.039 46.2371C107.487 48.4539 107.154 53.2446 105.799 54.3318C102.776 56.1626 100.72 53.9347 99.0256 55.5258C97.8341 60.2863 101.429 71.0195 102.855 76.1219C108.306 67.9712 114.57 59.9331 120.164 51.8393C122.78 48.0501 125.59 44.7672 127.985 40.7242C127.61 39.1394 127.573 38.4986 127.496 36.8579C124.605 36.7585 111.709 36.8429 110.279 35.8632C109.703 34.712 109.72 35.1493 110.011 34.1532C112.195 32.2634 123.898 33.28 127.472 33.434Z" fill="#47ACCC"/>
<path d="M101.788 29.2108C101.541 26.9936 95.7704 26.0086 94.787 24.5929C96.2688 20.4856 102.215 27.7952 104.536 26.545C104.85 27.0422 105.18 27.6827 105.652 27.9881L105.219 28.6584C105.724 30.4684 110.299 43.7691 110.252 44.6423C109.639 45.7027 109.356 46.0492 108.039 46.237C107.487 48.4539 107.154 53.2446 105.799 54.3318C102.776 56.1626 100.72 53.9347 99.0256 55.5258L98.298 55.7371C97.3899 58.9095 100.856 73.5899 102.525 76.2662C105.338 75.8621 120.241 51.5939 123.965 48.1315C125.707 47.9698 127.797 50.1676 128.457 51.7439C128.028 55.5683 105.748 81.9117 102.933 89.5173C101.323 91.7428 97.9982 96.3916 96.8125 98.8067C95.0945 99.6685 92.9832 98.1537 88.7459 99.4519C84.3328 94.1224 78.0141 83.8145 73.9621 79.4909L72.7834 80.2443C71.2288 78.4446 69.0807 75.097 67.632 73.0509C65.4658 70.0391 63.2286 67.0796 60.9221 64.174C59.9627 62.3586 59.6894 61.2011 57.6033 60.8592C54.9196 60.3553 53.9559 54.1403 60.5235 56.0294C61.0031 56.3997 60.7556 56.3585 61.242 56.3525C61.596 53.4723 61.0999 52.8194 59.9239 50.1642C60.0381 50.0936 60.2796 50.1086 60.4454 50.0996L61.3592 51.8876L61.8198 51.913L62.1363 51.3498C60.429 47.9236 61.1013 46.4262 61.0514 42.5282C60.5851 41.7062 60.0016 41.444 59.1997 40.9244C63.2993 41.9124 65.028 43.5816 67.5238 46.969C71.5105 44.8174 75.0762 42.9263 79.1784 41.0024C78.0523 37.0618 79.8035 33.59 79.6882 29.9883C79.2957 29.0772 78.9791 28.9865 78.0925 28.4953C78.9718 28.1826 79.1989 27.8354 79.8393 27.1711C80.1679 27.8277 80.192 27.7955 80.7926 28.2556C81.7878 28.2188 83.2837 26.7686 84.2832 26.0394C83.8223 27.2528 83.6324 27.4831 82.5914 28.2589L82.794 28.6832C83.4934 28.6048 83.7326 28.3293 84.2913 27.9003L84.7619 28.1394C83.9506 29.1867 83.4777 29.467 83.5795 30.5783L84.7643 31.8915C86.1594 31.7435 86.3644 31.7502 87.7337 32.0505C89.17 33.5713 87.7109 35.8042 90.9607 36.9152C91.4883 37.0953 93.3433 37.0501 94.0768 37.1398C97.6489 34.0337 94.3753 32.2152 99.8465 31.2255L101.788 29.2108Z" fill="#1E1E1E"/>
<path d="M79.1784 41.0024C79.3697 40.617 79.4605 40.5577 79.7415 40.2155L81.1852 40.3917C81.3828 40.9428 81.8287 41.9131 81.7107 42.4291C84.7703 47.0641 87.3649 53.5664 83.7845 58.7699L83.0697 59.1633C82.1442 58.7736 82.4517 59.0274 81.892 58.2154C82.9615 54.0937 83.9094 50.567 81.6046 46.6047C81.154 45.8413 80.6828 45.0903 80.1917 44.3523C76.3879 46.1416 72.6323 48.0324 68.9297 50.0226C69.6421 53.3568 69.5986 55.122 69.2479 58.4501C70.6403 60.9372 73.3196 64.4459 75.05 66.8489C78.5718 71.7742 82.1425 76.6646 85.7608 81.5193C87.4811 83.8316 90.4013 88.2928 92.1974 90.0325C94.9223 87.6349 98.0093 82.6567 100.08 79.4695C99.5705 77.4629 96.2946 64.6377 96.2226 63.1216C96.8443 60.5867 95.3912 58.9895 97.9734 55.2626L98.298 55.7371C97.3899 58.9095 100.856 73.5899 102.525 76.2662C105.338 75.8621 120.241 51.5939 123.965 48.1315C125.707 47.9698 127.797 50.1676 128.457 51.7439C128.028 55.5683 105.748 81.9117 102.933 89.5173C101.323 91.7428 97.9982 96.3916 96.8125 98.8067C95.0945 99.6685 92.9832 98.1537 88.7459 99.4519C84.3328 94.1224 78.0141 83.8145 73.9621 79.4909L72.7834 80.2443C71.2288 78.4446 69.0807 75.097 67.632 73.0509C65.4658 70.0391 63.2286 67.0796 60.9221 64.174C59.9627 62.3586 59.6894 61.2011 57.6033 60.8592C54.9196 60.3553 53.9559 54.1403 60.5235 56.0294C61.0031 56.3997 60.7556 56.3585 61.242 56.3525C61.596 53.4723 61.0999 52.8194 59.9239 50.1642C60.0381 50.0936 60.2796 50.1086 60.4454 50.0996L61.3592 51.8876L61.8198 51.913L62.1363 51.3498C60.429 47.9236 61.1013 46.4262 61.0514 42.5282C60.5851 41.7062 60.0016 41.444 59.1997 40.9244C63.2993 41.9124 65.028 43.5816 67.5238 46.969C71.5105 44.8174 75.0762 42.9263 79.1784 41.0024Z" fill="#6557C3"/>
<path d="M57.6033 60.8592C54.9196 60.3553 53.9559 54.1403 60.5235 56.0293C61.0031 56.3997 60.7556 56.3585 61.242 56.3525C60.8631 57.8846 60.6488 58.6631 60.0609 60.1189C64.6937 66.4458 69.5641 73.0217 73.9621 79.4909L72.7834 80.2443C71.2288 78.4446 69.0807 75.097 67.632 73.0509C65.4658 70.0391 63.2286 67.0796 60.9221 64.174C59.9627 62.3586 59.6894 61.2011 57.6033 60.8592Z" fill="#7CADF2"/>
<path d="M79.8394 27.1711C80.168 27.8277 80.1921 27.7955 80.7926 28.2556C81.7878 28.2188 83.2838 26.7686 84.2833 26.0394C83.8224 27.2528 83.6325 27.4831 82.5914 28.2589L82.794 28.6832C83.4934 28.6048 83.7326 28.3293 84.2913 27.9003L84.7619 28.1394C83.9507 29.1867 83.4777 29.467 83.5795 30.5783L84.7643 31.8915C83.8713 33.2495 83.8197 33.4444 83.6606 35.0649C85.8978 38.0991 88.4857 35.9167 88.9865 38.6834L88.7403 39.0822C88.7356 39.6199 88.6689 40.1077 88.8957 40.5808C88.2097 40.699 81.9767 42.2536 81.7108 42.4291C81.8287 41.9131 81.3829 40.9428 81.1852 40.3917L79.7415 40.2155C79.4605 40.5577 79.3697 40.617 79.1785 41.0024C78.0523 37.0618 79.8035 33.59 79.6883 29.9883C79.2957 29.0772 78.9792 28.9865 78.0925 28.4953C78.9718 28.1826 79.1989 27.8354 79.8394 27.1711Z" fill="#1E1E1E"/>
<path d="M79.8394 27.1711C80.168 27.8277 80.1921 27.7955 80.7926 28.2556C81.7878 28.2187 83.2838 26.7686 84.2833 26.0394C83.8224 27.2528 83.6325 27.4831 82.5914 28.2589L82.794 28.6832C83.4934 28.6048 83.7326 28.3293 84.2913 27.9003L84.7619 28.1394C83.9507 29.1867 83.4777 29.467 83.5795 30.5783L84.7643 31.8915C83.8713 33.2495 83.8197 33.4444 83.6606 35.0649C83.5115 33.9677 83.5658 33.3349 82.7857 32.5949C80.3187 32.6063 80.0571 38.6834 81.1852 40.3917L79.7415 40.2155C79.4605 40.5577 79.3697 40.617 79.1785 41.0024C78.0523 37.0618 79.8035 33.59 79.6883 29.9883C79.2957 29.0772 78.9792 28.9865 78.0925 28.4953C78.9718 28.1826 79.1989 27.8354 79.8394 27.1711Z" fill="#9D60E4"/>
<path d="M81.1852 40.3917C82.4467 40.3023 83.4978 39.2255 84.2568 39.2523C86.6317 39.3356 86.2585 39.7351 88.7403 39.0822C88.7356 39.6199 88.6689 40.1077 88.8957 40.5808C88.2097 40.699 81.9767 42.2536 81.7108 42.4291C81.8287 41.9131 81.3828 40.9428 81.1852 40.3917Z" fill="#9D60E4"/>
<path d="M101.788 29.2108C101.541 26.9936 95.7704 26.0086 94.787 24.5929C96.2689 20.4856 102.215 27.7952 104.536 26.545C104.85 27.0422 105.18 27.6827 105.652 27.9881L105.219 28.6584C105.724 30.4684 110.299 43.7691 110.252 44.6423C109.639 45.7027 109.356 46.0492 108.039 46.237C107.917 44.648 108.19 45.2118 107.018 44.1323C107.736 43.9448 107.414 44.1153 107.967 43.5226C107.562 42.3909 106.843 41.2435 106.301 39.9286C104.813 36.3182 105.696 33.7293 103.303 30.7279L101.569 32.2564C100.661 32.1288 100.55 31.8985 99.8466 31.2255L101.788 29.2108Z" fill="#51ABCD"/>
<path d="M99.8466 31.2255L101.788 29.2108C102.256 29.768 102.713 30.51 103.303 30.7279L101.569 32.2564C100.661 32.1288 100.55 31.8985 99.8466 31.2255Z" fill="#52BEE4"/>
<path d="M84.7643 31.8915C86.1594 31.7435 86.3644 31.7502 87.7337 32.0505C89.17 33.5713 87.7109 35.8042 90.9607 36.9152C91.4883 37.0953 93.3433 37.0501 94.0768 37.1398L95.1819 38.5106C95.4478 44.6905 92.1702 41.3543 89.7371 43.4111L88.8675 42.7512C89.509 41.6258 89.3773 41.6617 88.8957 40.5808C88.6689 40.1077 88.7356 39.6199 88.7402 39.0822L88.9864 38.6834C88.4857 35.9167 85.8978 38.0991 83.6606 35.0649C83.8197 33.4444 83.8713 33.2495 84.7643 31.8915Z" fill="#6557C3"/>
<path d="M97.5668 54.526C95.4304 53.4288 91.3261 51.5176 92.2691 48.4466L92.8901 48.1754C94.1415 48.5748 93.7807 48.4004 94.7116 49.6241C97.1113 52.7785 100.408 52.7263 104.096 53.1268L104.239 53.6076C104.849 53.8547 105.235 53.9966 105.799 54.3318C102.776 56.1626 100.72 53.9347 99.0256 55.5258L98.298 55.7371L97.9735 55.2626C95.3912 58.9895 96.8443 60.5867 96.2226 63.1216C96.0889 62.763 95.9677 62.4001 95.8595 62.0334C95.0399 59.241 96.2484 56.9424 97.5668 54.526Z" fill="#9D60E4"/>
<path d="M94.0769 37.1398C97.6489 34.0337 94.3753 32.2152 99.8466 31.2255C100.55 31.8985 100.661 32.1288 101.569 32.2564C100.601 33.6041 101.831 35.763 99.3401 36.3393C96.9173 36.9001 96.72 36.3704 95.1819 38.5106L94.0769 37.1398Z" fill="#5B95CC"/>
<path d="M107.018 44.1323C108.19 45.2118 107.917 44.648 108.039 46.237C107.487 48.4539 107.154 53.2446 105.799 54.3318C105.235 53.9966 104.849 53.8547 104.239 53.6076L104.096 53.1267C105.286 49.6928 104.799 46.1229 107.018 44.1323Z" fill="#6972D2"/>
<path d="M89.7371 43.4111C89.6095 45.0233 89.7083 45.5527 88.3497 46.5233C87.0876 46.4875 87.583 46.6372 86.483 45.8774C85.9494 44.6781 85.9963 45.1924 86.2796 43.9425C87.0155 43.0348 87.7387 43.0013 88.8675 42.7512L89.7371 43.4111Z" fill="#6557C3"/>
<path d="M128.26 72.2674C128.43 70.7911 132.045 66.2382 133.076 65.1426C143.376 54.2002 151.094 60.8927 154.038 73.082C154.226 73.8625 154.765 75.3233 155.103 76.0141L155.499 78.2407C155.509 78.7479 155.489 79.5548 155.613 80.0109C154.919 81.3247 154.551 81.7198 153.573 82.8492C151.995 85.3202 149.345 88.5047 147.429 90.8301C146.729 91.8691 143.299 97.166 142.633 97.6877C141.869 99.0923 140.452 102.238 139.26 102.813C138.875 101.97 138.948 101.415 138.935 100.489C138.359 96.2278 136.158 76.0465 135.197 73.7694C134.105 72.5128 133.9 72.4077 132.39 71.6915C130.444 71.6486 130.092 71.655 128.26 72.2674Z" fill="#7439BD"/>
<path d="M147.429 90.8301C147.054 89.1382 146.646 85.4066 146.716 83.7131L146.991 83.8222C147.054 84.8411 146.991 86.6518 147.895 87.1584C150.035 86.1677 151.415 84.7065 152.806 82.8613L153.573 82.8492C151.995 85.3202 149.345 88.5047 147.429 90.8301Z" fill="#9D60E4"/>
<path d="M138.935 100.489C139.019 99.7853 138.995 99.5543 139.387 98.949L139.427 99.1753C140.121 98.2877 141.038 97.2802 142.174 97.1195L142.633 97.6877C141.869 99.0923 140.452 102.238 139.26 102.813C138.875 101.97 138.948 101.415 138.935 100.489Z" fill="#9D60E4"/>
<path d="M151.834 46.9917C153.8 44.7655 154.936 43.3823 155.907 40.4767C158.942 41.0781 162.717 41.7239 165.668 42.4411C166.556 44.7119 166.861 45.4633 168.261 47.5362C164.898 55.1357 161.994 62.912 158.801 70.5789C158.309 71.7672 156.028 77.4876 155.499 78.2407L155.103 76.0141C154.601 67.6421 152.916 55.5522 151.834 46.9917Z" fill="#1E1E1E"/>
<path d="M137.364 40.9686C136.058 38.7323 135.13 36.9935 135.846 34.324C136.295 32.679 137.401 31.2914 138.905 30.4872C143.899 27.7905 147.47 31.5868 148.582 36.3175C147.336 40.9669 144.914 43.8196 139.668 42.3005C139.367 42.2124 139.069 42.1163 138.771 42.0122C135.88 46.3231 133.75 49.6164 130.591 53.7381L128.574 53.5044C130.413 51.0338 136.275 43.4674 137.364 40.9686Z" fill="#85EFED"/>
<path d="M102.933 89.5173C105.111 87.5204 110.286 78.4928 113.652 74.8L115.039 75.5145C112.061 80.1495 108.301 84.8408 105.128 89.3833C104.19 90.7256 101.201 94.5015 100.565 95.8786C99.992 96.6691 97.9299 99.6236 97.3813 100.171L96.8125 98.8067C97.9983 96.3916 101.323 91.7428 102.933 89.5173Z" fill="#E57CF4"/>
<path d="M128.574 53.5044L130.591 53.7381L115.039 75.5145L113.652 74.8C118.435 67.8038 124.18 60.436 128.574 53.5044Z" fill="#E57CF4"/>
<path d="M100.565 95.8786C103.127 94.3987 110.999 82.4558 113.173 79.3727C118.395 71.9717 124.297 64.323 129.291 56.7851C130.062 58.1083 131.274 60.2719 132.457 61.2168C133.006 61.6551 133.2 61.4291 134.075 61.2657C132.54 62.4145 129.231 70.8578 125.992 73.6663L126.176 74.7069C121.524 80.7914 117.581 86.7114 113.079 92.7664C112.262 93.7294 111.736 94.2791 111.163 95.4119C109.746 97.4576 107.858 100.034 106.596 102.117C107.074 104.286 107.228 104.925 107.045 107.196C105.992 111.188 104.861 114.254 101.432 116.916C98.2964 119.361 94.3093 120.444 90.3668 119.921C80.9018 118.668 76.8508 110.96 78.1411 102.056C75.9602 98.7688 61.3264 78.3247 59.9001 77.6849C59.4687 76.5836 60.4675 77.0594 59.868 75.7506L59.2208 76.0245C58.7974 77.1525 60.9315 89.8698 61.0256 92.142C61.1917 96.1565 64.9366 112.028 62.9955 114.764C62.2737 114.695 62.0345 114.431 61.9528 113.588C61.0966 104.995 59.8261 96.4619 58.4789 87.9325C58.0458 85.189 58.4082 79.7742 56.3479 78.0174C54.2614 78.4483 54.5411 84.5659 52.5166 86.3408C51.4752 85.9708 50.9084 84.1396 50.0921 83.3923C49.3656 82.727 48.1611 81.9572 47.3327 81.4101C49.4758 76.4209 51.5867 67.1647 54.2457 62.5745C54.6044 61.9554 57.6247 61.6534 58.3513 61.7716C58.9046 61.862 60.017 63.7411 60.4813 64.4285L60.9221 64.174C63.2286 67.0796 65.4658 70.0391 67.632 73.0509C69.0807 75.097 71.2289 78.4446 72.7834 80.2443L73.9621 79.4909C78.0142 83.8145 84.3328 94.1225 88.746 99.4519C92.9832 98.1538 95.0945 99.6685 96.8125 98.8067L97.3813 100.171C97.9299 99.6236 99.9919 96.6691 100.565 95.8786Z" fill="#6557C3"/>
<path d="M73.9621 79.4909C78.0141 83.8145 84.3328 94.1225 88.7459 99.4519C92.9832 98.1537 95.0945 99.6685 96.8125 98.8067L97.3812 100.171C98.221 102.153 99.124 104.62 98.8068 106.802C98.569 108.438 97.5306 109.775 96.2363 110.749C94.8938 111.758 93.2947 112.261 91.6172 112.01C89.5854 111.706 87.8915 110.293 86.7345 108.661C83.8277 104.56 87.1301 104.309 87.4326 101.049C87.528 100.016 74.3889 82.4963 72.7834 80.2443L73.9621 79.4909Z" fill="#9D60E4"/>
<path d="M107.045 107.196C106.195 106.191 106.02 102.928 106.086 101.634C109.653 96.0644 113.608 91.4211 116.429 85.3939C117.353 83.4134 123.771 73.8819 125.282 73.3492L125.717 73.9777L125.992 73.6663L126.176 74.7069C121.524 80.7914 117.581 86.7114 113.079 92.7664C112.262 93.7294 111.736 94.2791 111.163 95.4119C109.746 97.4576 107.858 100.034 106.596 102.117C107.074 104.286 107.228 104.925 107.045 107.196Z" fill="#9D60E4"/>
<path d="M40.3448 53.9119C40.5732 52.4789 40.8301 51.0743 41.2753 49.6891C42.3924 46.2809 44.7988 43.4449 47.9805 41.7875C51.4561 40.0177 55.4944 39.7069 59.1997 40.9244C60.0016 41.444 60.5851 41.7062 61.0514 42.5282C61.1013 46.4262 60.429 47.9236 62.1363 51.3498L61.8198 51.913L61.3592 51.8876L60.4454 50.0996C60.2796 50.1086 60.0381 50.0936 59.9239 50.1642C61.0999 52.8194 61.596 53.4723 61.242 56.3525C60.7556 56.3585 61.0032 56.3997 60.5235 56.0293C53.9559 54.1403 54.9196 60.3553 57.6033 60.8592C54.7494 62.2203 53.9924 60.1346 52.8947 63.1099C50.3829 69.9189 48.5242 77.0996 45.738 83.8008C44.9652 84.3968 44.575 85.3852 44.1071 86.2822C44.1218 86.3337 44.7428 83.6514 44.7076 82.434L44.6966 82.134L45.4412 79.7715L45.0299 79.3506C44.6751 80.2366 44.8346 80.2858 44.1918 80.6588C42.6309 78.9967 41.145 77.718 39.435 76.2177C39.3895 74.6426 42.1144 68.0566 42.7297 65.373L42.1814 64.8654C41.085 64.9123 29.9412 74.351 28.31 75.7563C27.2304 74.7648 27.3228 73.2682 27.4565 71.9322C23.6493 74.7715 20.1778 78.2387 16.2634 80.9524C15.292 81.6258 14.7772 81.9529 13.7944 81.2933C13.1744 79.0319 15.353 74.4153 15.9285 71.7136L15.9824 71.4531C15.5781 70.2259 15.5282 68.3693 13.6283 67.8557C13.8765 66.6855 14.729 64.4288 15.147 63.2171L12.7875 60.7209C12.3993 57.7038 12.3102 54.6592 15.0844 52.808C18.7719 50.3467 21.7762 52.6992 23.7759 55.654C28.8928 55.3071 35.17 54.4617 40.3448 53.9119Z" fill="#205FAF"/>
<path d="M40.5953 57.2491L41.4441 60.5964C36.4998 64.2543 32.1865 68.0221 27.4565 71.9322C23.6493 74.7715 20.1778 78.2387 16.2634 80.9524C15.292 81.6258 14.7772 81.9529 13.7944 81.2933C13.1744 79.0319 15.353 74.4153 15.9285 71.7136L15.9824 71.4531C16.4339 70.2109 18.1265 64.5855 18.6195 64.3072C22.5138 62.1101 22.0311 63.1859 24.2214 59.2644C29.6371 58.4451 35.1509 57.9831 40.5953 57.2491Z" fill="#1E1E1E"/>
<path d="M51.5408 49.2137C54.9002 47.4133 56.8466 48.1707 59.9239 50.1642C61.0999 52.8194 61.596 53.4723 61.242 56.3525C60.7556 56.3585 61.0032 56.3997 60.5235 56.0294C53.9559 54.1403 54.9196 60.3553 57.6033 60.8592C54.7494 62.2203 53.9924 60.1347 52.8948 63.1099C50.3829 69.9189 48.5242 77.0996 45.738 83.8008C44.9652 84.3968 44.575 85.3852 44.1071 86.2822C44.1218 86.3337 44.7428 83.6514 44.7077 82.434L44.6966 82.134L45.4412 79.7715C47.2319 76.2997 50.7078 64.919 51.772 61.0534C48.3155 57.5093 46.2743 52.2606 51.5408 49.2137Z" fill="#52BEE4"/>
<path d="M51.5408 49.2137C54.9002 47.4133 56.8466 48.1707 59.9239 50.1642C61.0999 52.8194 61.596 53.4723 61.242 56.3525C60.7556 56.3585 61.0031 56.3997 60.5235 56.0294L60.896 55.2562C60.8966 54.8404 60.8929 53.7134 60.6789 53.4371C59.6378 52.0955 55.6441 49.2645 54.1606 48.8972C53.1161 49.1788 52.6204 49.2455 51.5408 49.2137Z" fill="#85EFED"/>
<path d="M28.3099 75.7563C29.9412 74.351 41.085 64.9123 42.1813 64.8654C39.0525 74.6852 34.2619 86.3163 31.5296 95.8076C27.0448 94.171 22.6072 92.4075 18.2226 90.5187C18.3328 87.8116 18.2263 87.1186 16.9846 84.7249L28.3099 75.7563Z" fill="#1E1E1E"/>
<path d="M31.3042 121.685C31.4877 124.156 29.6086 126.837 29.7041 128.53C30.2186 127.529 30.9474 125.48 31.5731 124.967C31.1504 126.822 30.9967 127.64 30.169 129.382C31.3491 130.918 33.1163 133.075 33.2292 135.013C33.5853 141.12 27.3503 144.945 22.6826 140.562C21.2664 139.206 20.4374 137.35 20.3734 135.391C20.2227 130.625 24.2603 129.099 28.3341 129.03C29.3691 127.197 30.5294 123.775 31.3042 121.685Z" fill="#205FAF"/>
<path d="M31.3042 121.685C32.5238 116.026 36.1444 106.621 38.1658 100.817C39.9813 95.6044 42.6396 86.7824 44.6966 82.134L44.7076 82.434C44.7428 83.6514 44.1218 86.3337 44.107 86.2822C44.575 85.3852 44.9652 84.3968 45.738 83.8008C44.8229 87.4748 43.1598 91.7422 41.964 95.3918C38.7128 105.313 34.9723 115.091 31.5731 124.967C30.9474 125.48 30.2186 127.529 29.7041 128.53C29.6086 126.837 31.4877 124.156 31.3042 121.685Z" fill="#4184C9"/>
<path d="M56.1388 78.7828C57.3762 79.9818 61.0712 112.033 61.385 115.684C61.4286 116.19 60.5044 116.66 60.1128 116.922C58.9853 116.509 57.8649 115.081 56.995 114.14C53.8826 110.86 50.7611 107.492 47.4969 104.37C50.4984 96.0376 53.3309 87.2036 56.1388 78.7828Z" fill="#1E1E1E"/>
<path d="M16.9973 94.1703C18.1955 94.236 28.1314 98.2656 30.3589 99.0929C28.2252 105.319 26.0426 111.529 23.8114 117.722L22.2435 121.683C20.0498 114.612 16.1124 104.705 13.5409 97.5082C15.2659 96.2148 15.6548 95.8538 16.9973 94.1703Z" fill="#1E1E1E"/>
<path d="M46.2451 107.944C49.3984 110.345 53.3001 115.772 57.4187 119.217C55.8501 121.817 55.9178 122.626 55.8287 125.627L48.3708 127.973C45.8968 128.858 43.3206 129.848 40.7742 130.442L40.2255 129.94C39.1165 126.247 44.775 112.024 46.2451 107.944Z" fill="#1E1E1E"/>
<path d="M8.21161 84.825C10.6672 84.4048 13.0036 86.0391 13.4501 88.489C13.8966 90.9393 12.2868 93.2917 9.84054 93.7642C8.23474 94.0742 6.5864 93.4983 5.52356 92.2555C4.46073 91.0129 4.14789 89.2956 4.70426 87.7581C5.26029 86.2209 6.59978 85.1009 8.21161 84.825Z" fill="#4184C9"/>
<path d="M64.0908 119.938C66.4389 119.565 68.6634 121.11 69.1337 123.439C69.604 125.769 68.1529 128.055 65.844 128.622C64.2623 129.01 62.5949 128.5 61.5009 127.294C60.4069 126.089 60.0619 124.38 60.6025 122.844C61.1432 121.309 62.4823 120.193 64.0908 119.938Z" fill="#6557C3"/>
<path d="M187.27 19.222C201.305 13.23 215.634 7.74585 229.763 1.96241C231.501 1.25091 233.384 0.513622 235.186 0C235.705 0.789518 235.524 0.578582 235.306 1.83552C234.559 10.1412 233.139 18.987 232.315 27.4513C231.672 34.0126 230.835 44.8482 229.622 51.1878C225.84 47.5335 221.556 43.0669 217.734 39.6313C214.74 43.0612 212.834 46.0154 210.114 49.5404L195.573 68.2572C193.674 70.7027 190.8 74.8409 188.797 76.9646C180.363 87.813 171.322 99.1498 163.608 110.5C162.295 112.435 161.548 116.059 161.394 118.418C161.973 122.878 164.298 126.778 168.857 127.586C177.425 129.104 188.07 128.47 196.769 128.433C199.888 128.429 218.079 128.039 219.975 128.63C220.297 129.64 220.173 130.109 220.039 131.135C218.599 138.327 213.102 145.616 205.723 146.384C198.826 147.101 188.653 147.06 181.766 146.522C171.108 146.907 159.036 148.155 150.056 141.359C135.662 130.468 137.86 110.945 147.587 97.6964C148.759 95.7041 151.077 92.8521 152.538 90.9292L163.327 76.9466C175.888 60.3821 188.539 43.8876 201.281 27.4631C196.592 24.751 191.919 22.0037 187.27 19.222Z" fill="#2FC8C9"/>
<path d="M178.326 74.8643C180.048 74.4782 180.018 73.3402 181.307 72.1602C183.525 70.1292 188.372 69.5081 191.128 70.2527C192.797 71.8525 189.44 75.2078 188.271 76.7182C188.462 76.8244 188.606 76.9389 188.797 76.9646C180.363 87.813 171.322 99.1498 163.608 110.5C162.295 112.435 161.548 116.059 161.394 118.418C161.973 122.878 164.298 126.778 168.857 127.586C177.425 129.104 188.07 128.47 196.769 128.433C199.888 128.429 218.079 128.039 219.975 128.63C220.297 129.64 220.173 130.109 220.039 131.135C218.599 138.327 213.102 145.616 205.723 146.384C198.826 147.101 188.653 147.06 181.766 146.522C171.108 146.907 159.036 148.155 150.056 141.359C135.662 130.468 137.86 110.945 147.587 97.6964C147.895 99.7478 145.209 101.436 145.637 102.783C147.369 103.091 148.856 102.411 150.454 102.445C152.136 102.481 152.521 103.511 154.346 102.982C154.681 102.592 155.234 101.906 155.589 101.573L155.629 101.123C156.145 100.059 157.14 99.4441 158.091 98.7112C157.545 99.7274 156.808 100.792 156.929 101.904C157.448 101.231 158.041 100.565 158.59 99.9112C165.42 91.7964 171.513 82.9868 178.326 74.8643Z" fill="#6557C3"/>
<path d="M181.766 146.522C174.826 145.109 167.812 141.752 163.759 135.724C160.66 131.092 159.522 125.424 160.59 119.955C160.801 118.912 160.691 118.891 161.394 118.418C161.973 122.878 164.298 126.778 168.857 127.586C177.425 129.104 188.07 128.47 196.769 128.433C199.888 128.429 218.079 128.039 219.975 128.63C220.297 129.64 220.173 130.109 220.039 131.135C218.599 138.327 213.102 145.616 205.723 146.384C198.826 147.101 188.653 147.06 181.766 146.522Z" fill="#12468B"/>
<path d="M196.769 128.433C199.888 128.429 218.079 128.039 219.975 128.63C220.297 129.64 220.173 130.109 220.039 131.135C219.423 131.283 215.581 134.684 213.882 135.54C208.711 138.079 202.417 137.623 196.826 137.354C194.86 137.259 194.696 130.246 195.104 129.195C195.905 129.152 196.32 129.137 197.104 128.976L196.769 128.433Z" fill="#4184C9"/>
<path d="M155.589 101.573L155.629 101.123C156.145 100.059 157.14 99.4442 158.091 98.7112C157.545 99.7274 156.808 100.792 156.929 101.904C155.686 104.592 153.603 107.439 152.233 110.122C151.345 111.867 151.144 114.005 149.848 115.507C149.111 112.807 154.507 104.407 155.589 101.573Z" fill="#7CADF2"/>
<path d="M208.523 35.1004C211.39 33.5127 224.052 14.0975 227.565 10.6039C229.277 8.90368 233.106 1.58373 235.306 1.83552C234.559 10.1412 233.139 18.987 232.315 27.4513C231.672 34.0126 230.835 44.8482 229.622 51.1878C225.84 47.5335 221.556 43.0669 217.734 39.6313C214.74 43.0612 212.834 46.0154 210.114 49.5404L195.573 68.2572C193.674 70.7027 190.8 74.8409 188.797 76.9647C188.606 76.9389 188.462 76.8244 188.271 76.7182C189.44 75.2078 192.797 71.8525 191.128 70.2527C188.372 69.5081 183.525 70.1292 181.307 72.1602C180.018 73.3402 180.048 74.4782 178.326 74.8643C181.314 70.4627 185.169 66.044 188.311 61.7465C194.803 52.8599 202.152 44.0085 208.523 35.1004Z" fill="#288EC4"/>
<path d="M158.091 98.7112C162.298 93.9835 170.903 81.9589 174.93 76.5709C182.004 67.2507 189.199 58.0226 196.515 48.8889C198.692 46.1319 205.753 35.6475 208.523 35.1004C202.152 44.0085 194.803 52.8599 188.311 61.7465C185.169 66.044 181.314 70.4627 178.326 74.8643C171.513 82.9868 165.42 91.7964 158.59 99.9112C158.041 100.565 157.448 101.231 156.929 101.904C156.808 100.792 157.545 99.7274 158.091 98.7112Z" fill="#85EFED"/>
<path d="M128.26 72.2674C130.092 71.655 130.444 71.6486 132.39 71.6915C133.9 72.4077 134.105 72.5128 135.197 73.7694C133.991 75.616 129.218 91.0645 128.189 94.1512C130.789 96.5064 132.386 100.139 129.556 103.045C128.541 104.093 127.188 104.745 125.734 104.885C125.208 106.981 123.818 114.592 122.729 115.662C121.497 115.631 121.962 115.812 121.004 114.931C119.604 111.386 124.079 106.255 121.959 103.745C120.08 102.48 119.802 100.871 119.447 98.7658C117.015 97.9512 113.608 96.4237 111.163 95.4118C111.736 94.2791 112.262 93.7293 113.079 92.7664C117.581 86.7114 121.524 80.7914 126.176 74.7069C126.957 73.9047 127.707 73.238 128.26 72.2674Z" fill="#4184C9"/>
<path d="M128.26 72.2674C130.092 71.655 130.444 71.6486 132.39 71.6915C131.08 75.8232 129.69 79.815 128.34 83.9166C127.372 86.8597 126.87 89.6663 125.67 92.7343C123.389 93.8817 122.19 94.4546 120.19 96.1324C119.216 95.0007 114.62 93.3808 113.079 92.7664C117.581 86.7114 121.524 80.7914 126.176 74.7069C126.957 73.9047 127.707 73.238 128.26 72.2674Z" fill="#1E1E1E"/>
<path d="M113.079 92.7664C114.62 93.3808 119.216 95.0007 120.19 96.1324C118.207 96.2677 115.735 93.6922 113.933 94.2694L113.471 95.1832C114.523 96.5221 117.856 97.3451 119.4 98.1916C119.139 98.0486 122.049 103.304 122.019 103.218C124.223 104.659 123.195 105.739 124.645 105.934L125.165 104.567L125.734 104.885C125.208 106.981 123.818 114.592 122.729 115.662C121.497 115.631 121.962 115.812 121.004 114.931C119.604 111.386 124.079 106.255 121.959 103.745C120.08 102.48 119.802 100.871 119.447 98.7658C117.015 97.9512 113.608 96.4237 111.163 95.4119C111.736 94.2791 112.262 93.7294 113.079 92.7664Z" fill="#6972D2"/>
<path d="M151.221 6.17686C161.086 5.87518 172.15 15.4716 169.986 25.6312L168.616 25.4645C167.35 24.302 166.643 20.3634 165.953 18.4305C162.945 10.0056 157.106 11.0482 151.539 8.45267C150.906 7.46192 151.127 7.58848 151.221 6.17686Z" fill="#30C6CD"/>
<path d="M89.0883 19.0569C89.0528 17.3356 88.7734 15.8131 89.9706 14.5796C90.6619 13.8661 91.634 13.4951 92.6251 13.5668C93.6783 13.6438 94.6959 14.2391 95.3001 15.1036C95.8418 15.8871 96.0511 16.8531 95.8823 17.7906C95.606 19.3144 94.3043 20.3055 93.1497 21.2159L93.2281 28.1692C92.395 28.0319 92.3431 28.0446 91.6846 27.5511L91.3443 26.1582C89.3124 25.0657 86.6317 27.0864 84.7619 28.1394L84.2913 27.9003C83.7326 28.3292 83.4934 28.6048 82.794 28.6832L82.5914 28.2589C83.6325 27.4831 83.8224 27.2528 84.2833 26.0394L84.501 25.8703C87.4714 23.5955 90.7048 24.2782 91.4025 21.8946C91.0314 20.5027 90.2034 20.0088 89.0883 19.0569Z" fill="#288EC4"/>
<path d="M105.84 121.43C106.408 121.755 106.887 121.903 106.98 122.689C107.459 126.786 107.028 131.054 107.495 135.174C107.523 138.37 107.512 141.644 107.586 144.831C110.678 145.179 122.039 145.328 124.96 144.836L126.146 146.25C125.526 146.442 124.89 146.574 124.247 146.645C121.359 146.978 108.164 147.232 106.175 145.68C105.204 143.406 105.399 124.305 105.84 121.43Z" fill="#032860"/>
<path d="M151.164 11.9097C159.351 11.7795 164.978 17.2911 164.841 25.5093C164.623 25.501 162.992 25.3657 162.982 25.3547C161.484 23.6655 161.36 19.9506 159.615 17.9634C157.314 15.3384 154.323 15.4957 151.533 13.7814C151.044 13.4797 151.168 12.5369 151.164 11.9097Z" fill="#52BEE4"/>
<path d="M104.536 26.545C107.627 23.5513 105.509 19.9707 109.555 19.4165C112.63 18.9953 114.888 23.8168 111.729 25.5184C108.835 26.9591 108.376 25.6038 105.652 27.9881C105.18 27.6827 104.85 27.0422 104.536 26.545Z" fill="#2FC8C9"/>
<path d="M123.982 118.583C126.498 122.425 124.31 123.06 129.851 124.62C129.342 124.856 128.832 125.099 128.33 125.349C125.577 126.719 125.141 127.69 124.187 130.542C123.738 130.049 123.486 129.088 123.158 128.492C121.741 125.906 120.462 125.635 117.872 124.775C121.982 123.336 122.82 122.82 123.982 118.583Z" fill="#288EC4"/>
<path d="M78.0925 28.4953C73.9008 29.8815 71.2425 25.8114 73.5997 23.4893C76.7928 20.3437 80.5344 21.7948 79.8393 27.1711C79.1989 27.8354 78.9718 28.1826 78.0925 28.4953Z" fill="#6557C3"/>
<path d="M105.84 121.43C106.291 120.603 106.635 119.873 107.724 119.668C109.984 119.242 119.216 118.449 120.137 120.758C118.981 121.923 109.84 121.622 107.498 121.738C107.518 125.556 107.724 131.524 107.495 135.174C107.028 131.054 107.459 126.786 106.98 122.689C106.887 121.903 106.408 121.755 105.84 121.43Z" fill="#288EC4"/>
<path d="M151.168 17.2425C156.145 17.1665 159.25 20.5546 159.428 25.4223C155.968 25.585 156.982 24.9174 155.807 22.1199C155.304 20.9219 152.655 20.2291 151.442 19.817C150.769 18.7706 151.034 18.785 151.168 17.2425Z" fill="#6972D2"/>
<path d="M125.044 133.87L126.973 131.656C127.107 134.594 128.109 144.255 126.146 146.25L124.96 144.836L125.044 133.87Z" fill="#288EC4"/>
<path d="M111.646 131.286C113.545 131.246 120.978 130.845 122.106 132.286C121.38 132.934 121.524 132.742 120.442 132.99C118.378 133.066 110.852 133.749 109.89 132.179L110.349 131.502L111.646 131.286Z" fill="#205FAF"/>
<path d="M91.6846 27.5511C92.3431 28.0446 92.395 28.0319 93.2281 28.1692C94.0223 28.3477 94.2514 28.8154 94.7713 29.476C95.2647 32.2243 92.3612 33.5375 90.3873 32.0679C89.851 31.0079 89.8466 30.8622 89.9384 29.6736C90.5166 28.4789 90.677 28.3637 91.6846 27.5511Z" fill="#4184C9"/>
<path d="M110.306 135.311C112.784 135.255 120.478 134.74 122.07 135.969L121.869 136.791C119.661 136.825 111.301 137.739 110.044 136.153L110.306 135.311Z" fill="#205FAF"/>
<path d="M109.89 139.24C112.205 139.119 114.851 138.768 117.032 139.31C117.762 140.015 117.544 139.694 117.594 141.014C115.839 141.11 111.729 141.571 110.363 140.624C109.914 140.312 109.998 139.9 109.89 139.24Z" fill="#032860"/>
<path d="M130.032 116.171C130.846 117.578 131.74 117.654 131.787 118.766C130.795 119.596 130.604 119.867 130.085 121.051C129.321 120.102 128.3 119.28 127.379 118.474C128.708 117.619 128.953 117.345 130.032 116.171Z" fill="#2FC8C9"/>
<path d="M12.1262 160.087H19.7114L27.7228 179.633H28.0637L36.0751 160.087H43.6603V189.178H37.6944V170.244H37.4529L29.9245 189.036H25.862L18.3336 170.173H18.0921V189.178H12.1262V160.087ZM48.7278 189.178V160.087H54.8783V184.107H67.3499V189.178H48.7278ZM81.3485 189.178V160.087H85.7377V185.4H98.9195V189.178H81.3485ZM112.989 189.619C110.84 189.619 108.988 189.159 107.435 188.241C105.892 187.313 104.698 186.011 103.856 184.335C103.022 182.649 102.606 180.675 102.606 178.411C102.606 176.177 103.022 174.207 103.856 172.502C104.698 170.798 105.873 169.467 107.378 168.511C108.894 167.554 110.664 167.076 112.691 167.076C113.922 167.076 115.115 167.28 116.27 167.687C117.426 168.094 118.463 168.733 119.381 169.605C120.3 170.476 121.024 171.607 121.554 172.999C122.085 174.382 122.35 176.063 122.35 178.042V179.548H105.006V176.366H118.188C118.188 175.248 117.961 174.259 117.506 173.397C117.052 172.526 116.412 171.839 115.589 171.337C114.774 170.836 113.818 170.585 112.719 170.585C111.526 170.585 110.484 170.878 109.594 171.465C108.714 172.043 108.032 172.801 107.549 173.738C107.075 174.666 106.839 175.675 106.839 176.764V179.249C106.839 180.708 107.094 181.948 107.606 182.971C108.126 183.994 108.851 184.775 109.779 185.315C110.707 185.845 111.791 186.11 113.032 186.11C113.837 186.11 114.571 185.997 115.233 185.769C115.896 185.533 116.469 185.182 116.952 184.718C117.435 184.254 117.804 183.681 118.06 182.999L122.08 183.724C121.758 184.908 121.18 185.945 120.347 186.835C119.523 187.715 118.486 188.402 117.236 188.894C115.996 189.377 114.58 189.619 112.989 189.619ZM133.412 189.661C132.029 189.661 130.779 189.406 129.662 188.894C128.544 188.373 127.659 187.621 127.005 186.636C126.362 185.651 126.04 184.444 126.04 183.014C126.04 181.783 126.276 180.769 126.75 179.974C127.223 179.178 127.862 178.549 128.667 178.085C129.472 177.621 130.372 177.27 131.366 177.034C132.361 176.797 133.374 176.617 134.406 176.494C135.713 176.342 136.773 176.219 137.588 176.124C138.402 176.02 138.994 175.855 139.363 175.627C139.733 175.4 139.917 175.031 139.917 174.519V174.42C139.917 173.179 139.567 172.218 138.866 171.536C138.175 170.855 137.143 170.514 135.77 170.514C134.34 170.514 133.213 170.831 132.389 171.465C131.575 172.09 131.011 172.786 130.699 173.553L126.707 172.644C127.181 171.319 127.872 170.248 128.781 169.434C129.7 168.61 130.755 168.014 131.949 167.644C133.142 167.266 134.397 167.076 135.713 167.076C136.584 167.076 137.507 167.18 138.483 167.389C139.468 167.587 140.386 167.957 141.238 168.497C142.1 169.036 142.806 169.808 143.355 170.812C143.904 171.806 144.179 173.099 144.179 174.69V189.178H140.031V186.195H139.861C139.586 186.745 139.174 187.284 138.625 187.815C138.076 188.345 137.37 188.785 136.508 189.136C135.647 189.486 134.614 189.661 133.412 189.661ZM134.335 186.252C135.509 186.252 136.513 186.02 137.346 185.556C138.189 185.092 138.828 184.486 139.264 183.738C139.709 182.98 139.932 182.171 139.932 181.309V178.497C139.78 178.648 139.487 178.79 139.051 178.923C138.625 179.046 138.137 179.155 137.588 179.249C137.039 179.335 136.504 179.415 135.983 179.491C135.462 179.557 135.026 179.614 134.676 179.661C133.852 179.766 133.099 179.941 132.417 180.187C131.745 180.433 131.205 180.788 130.798 181.252C130.4 181.707 130.202 182.313 130.202 183.07C130.202 184.122 130.59 184.917 131.366 185.457C132.143 185.987 133.132 186.252 134.335 186.252ZM149.836 189.178V167.36H153.941V170.826H154.168C154.566 169.652 155.267 168.729 156.27 168.056C157.284 167.374 158.429 167.034 159.708 167.034C159.973 167.034 160.286 167.043 160.645 167.062C161.015 167.081 161.304 167.105 161.512 167.133V171.195C161.341 171.148 161.038 171.096 160.603 171.039C160.167 170.973 159.732 170.94 159.296 170.94C158.292 170.94 157.397 171.153 156.611 171.579C155.835 171.996 155.219 172.578 154.765 173.326C154.31 174.065 154.083 174.908 154.083 175.855V189.178H149.836ZM169.434 176.224V189.178H165.187V167.36H169.264V170.911H169.534C170.036 169.756 170.822 168.828 171.892 168.127C172.971 167.427 174.33 167.076 175.969 167.076C177.455 167.076 178.757 167.389 179.875 168.014C180.992 168.629 181.859 169.548 182.474 170.769C183.09 171.991 183.398 173.501 183.398 175.301V189.178H179.15V175.812C179.15 174.23 178.738 172.995 177.915 172.105C177.091 171.205 175.959 170.755 174.52 170.755C173.535 170.755 172.659 170.968 171.892 171.394C171.134 171.82 170.533 172.445 170.088 173.269C169.652 174.084 169.434 175.069 169.434 176.224ZM198.497 189.619C196.347 189.619 194.496 189.159 192.943 188.241C191.399 187.313 190.206 186.011 189.363 184.335C188.53 182.649 188.113 180.675 188.113 178.411C188.113 176.177 188.53 174.207 189.363 172.502C190.206 170.798 191.38 169.467 192.886 168.511C194.401 167.554 196.172 167.076 198.199 167.076C199.43 167.076 200.623 167.28 201.778 167.687C202.934 168.094 203.97 168.733 204.889 169.605C205.808 170.476 206.532 171.607 207.062 172.999C207.593 174.382 207.858 176.063 207.858 178.042V179.548H190.514V176.366H203.696C203.696 175.248 203.469 174.259 203.014 173.397C202.559 172.526 201.92 171.839 201.096 171.337C200.282 170.836 199.326 170.585 198.227 170.585C197.034 170.585 195.992 170.878 195.102 171.465C194.221 172.043 193.54 172.801 193.057 173.738C192.583 174.666 192.346 175.675 192.346 176.764V179.249C192.346 180.708 192.602 181.948 193.113 182.971C193.634 183.994 194.359 184.775 195.287 185.315C196.215 185.845 197.299 186.11 198.54 186.11C199.344 186.11 200.078 185.997 200.741 185.769C201.404 185.533 201.977 185.182 202.46 184.718C202.943 184.254 203.312 183.681 203.568 182.999L207.588 183.724C207.266 184.908 206.688 185.945 205.855 186.835C205.031 187.715 203.994 188.402 202.744 188.894C201.504 189.377 200.088 189.619 198.497 189.619ZM212.57 189.178V167.36H216.675V170.826H216.902C217.3 169.652 218.001 168.729 219.005 168.056C220.018 167.374 221.164 167.034 222.442 167.034C222.707 167.034 223.02 167.043 223.38 167.062C223.749 167.081 224.038 167.105 224.246 167.133V171.195C224.076 171.148 223.773 171.096 223.337 171.039C222.902 170.973 222.466 170.94 222.03 170.94C221.027 170.94 220.132 171.153 219.346 171.579C218.569 171.996 217.954 172.578 217.499 173.326C217.045 174.065 216.817 174.908 216.817 175.855V189.178H212.57Z" fill="url(#paint0_linear_1_129)"/>
<defs>
<linearGradient id="paint0_linear_1_129" x1="9.59781" y1="174.178" x2="225.598" y2="174.178" gradientUnits="userSpaceOnUse">
<stop stop-color="#0D3C7E"/>
<stop offset="0.182692" stop-color="#3A4AA1"/>
<stop offset="0.355769" stop-color="#6557C3"/>
<stop offset="0.509615" stop-color="#5872C4"/>
<stop offset="0.673077" stop-color="#4A8FC6"/>
<stop offset="1" stop-color="#2FC8C9"/>
</linearGradient>
</defs>
</svg>
